<svg xmlns="http://www.w3.org/2000/svg" width="500" height="500" viewBox="0 0 500 500" version="1.1">
	<path d="M 394.500 98.880 C 379.403 107.375, 370.084 113.129, 363.586 117.964 C 355.078 124.295, 328.419 147.372, 311.718 162.862 C 303.038 170.913, 293.375 179.645, 290.246 182.268 L 284.555 187.035 278.606 181.086 L 272.656 175.136 260.578 185.882 L 248.500 196.629 217 206.302 C 182.706 216.832, 159.921 222.910, 124.607 230.945 C 89.704 238.886, 90.074 238.741, 84.247 246.770 C 78.850 254.205, 71.617 266.319, 70.598 269.627 C 69.951 271.730, 70.167 271.762, 89.544 272.489 C 100.325 272.893, 126.325 272.908, 147.323 272.522 L 185.500 271.820 176.500 280.798 L 167.500 289.775 121.519 300.393 L 75.538 311.012 68.769 317.729 C 65.046 321.424, 62 324.917, 62 325.492 C 62 326.068, 68.040 330.027, 75.422 334.290 C 82.803 338.553, 92.928 344.723, 97.922 348.002 C 108.056 354.656, 108.423 355.432, 104.831 362.623 L 102.663 366.966 108.331 372.909 C 111.449 376.177, 113.989 379.222, 113.975 379.676 C 113.961 380.129, 110.782 384.325, 106.910 389 C 96.078 402.080, 90.803 409.002, 91.692 408.975 C 92.594 408.947, 96.305 406.098, 110.224 394.750 C 115.451 390.488, 120.163 387, 120.694 387 C 121.225 387, 124.394 389.475, 127.737 392.500 C 131.080 395.525, 134.315 398, 134.927 398 C 135.539 398, 137.822 396.875, 140 395.500 C 142.178 394.125, 144.601 393, 145.383 393 C 146.817 393, 152.226 401.391, 166.494 425.750 C 170.763 433.038, 174.546 439, 174.903 439 C 175.259 439, 178.775 435.738, 182.716 431.750 L 189.883 424.500 200.470 378.500 L 211.056 332.500 219.528 324.007 L 228 315.514 228 372.757 C 228 411.182, 228.337 430, 229.025 430 C 230.687 430, 243.542 423.280, 250.887 418.572 C 262.355 411.221, 262.133 411.727, 269.995 375.168 C 278.115 337.404, 282.759 320.059, 296.649 275.602 L 304.115 251.704 314.722 239.797 L 325.328 227.890 319.474 221.974 L 313.619 216.057 317.012 211.779 C 318.879 209.425, 325.661 201.875, 332.084 195 C 357.424 167.879, 381.555 139.308, 388.673 128 C 400.665 108.949, 409.687 91.967, 407.764 92.063 C 407.069 92.098, 401.100 95.165, 394.500 98.880" stroke="none" fill="#000000" fill-rule="evenodd"/>
</svg>